<?xml version="1.0" encoding="utf-8"?>
<!-- Generator: Adobe Illustrator 13.0.0, SVG Export Plug-In . SVG Version: 6.00 Build 14948)  -->
<!DOCTYPE svg PUBLIC "-//W3C//DTD SVG 1.0//EN" "http://www.w3.org/TR/2001/REC-SVG-20010904/DTD/svg10.dtd">
<svg version="1.0" id="Layer_1" xmlns="http://www.w3.org/2000/svg" xmlns:xlink="http://www.w3.org/1999/xlink" x="0px" y="0px"
	 width="555px" height="555px" viewBox="0 0 555 555" enable-background="new 0 0 555 555" xml:space="preserve">
<g>
	<path fill="#009DF4" d="M220.961,304.558c-1.108-0.201-2.332-0.436-3.674-0.705c-1.342-0.269-2.546-0.537-3.61-0.807
		c-0.086,0-0.288-0.101-0.607-0.302c-0.32-0.201-0.479-0.336-0.479-0.403c-1.022-0.403-1.971-0.722-2.844-0.957
		c-0.874-0.234-1.641-0.512-2.3-0.831c-0.661-0.319-1.172-0.764-1.534-1.335c-0.362-0.571-0.543-1.411-0.543-2.52v-0.252
		c0-0.066,0.128-0.285,0.384-0.654c0.255-0.37,0.383-0.588,0.383-0.655c0.212-0.705,0.309-1.469,0.288-2.292
		c-0.022-0.823,0.032-1.638,0.16-2.444c0-0.032,0.074-0.176,0.224-0.428c0.149-0.252,0.224-0.411,0.224-0.479
		c0-0.033,0.01-0.134,0.032-0.303c0.021-0.167,0.053-0.353,0.096-0.554c0.042-0.202,0.085-0.395,0.128-0.58
		c0.042-0.184,0.084-0.327,0.127-0.428c0-0.067,0.01-0.227,0.032-0.479c0.021-0.252,0.053-0.512,0.096-0.781
		c0.042-0.269,0.085-0.528,0.128-0.78c0.042-0.252,0.064-0.411,0.064-0.479c0-0.032,0.021-0.15,0.064-0.353
		c0.042-0.201,0.096-0.402,0.16-0.604c0.064-0.201,0.117-0.395,0.16-0.579c0.042-0.185,0.064-0.294,0.064-0.327
		c0-0.067,0.021-0.219,0.064-0.454c0.042-0.234,0.085-0.495,0.127-0.78c0.042-0.285,0.085-0.555,0.128-0.807
		c0.042-0.252,0.085-0.428,0.128-0.528c0-0.102,0.032-0.26,0.096-0.479s0.149-0.429,0.256-0.63c0.105-0.202,0.233-0.386,0.383-0.555
		c0.149-0.168,0.33-0.252,0.543-0.252c0.341,0,0.639,0.252,0.895,0.756c0.255,0.504,0.479,1.101,0.671,1.788
		c0.191,0.689,0.352,1.369,0.479,2.041c0.128,0.672,0.234,1.158,0.32,1.461c0.042,0.201,0.096,0.571,0.16,1.108
		s0.128,1.108,0.192,1.713c0.063,0.604,0.127,1.167,0.191,1.688c0.064,0.521,0.096,0.882,0.096,1.083
		c0.085,0.068,0.181,0.169,0.288,0.303c0.106,0.135,0.16,0.235,0.16,0.302c0.34,0.572,0.596,1.108,0.767,1.612
		c0.17,0.504,0.447,1.042,0.831,1.612c0.042,0.101,0.138,0.261,0.288,0.479c0.149,0.219,0.309,0.438,0.479,0.655
		c0.169,0.219,0.33,0.429,0.479,0.63c0.149,0.201,0.266,0.353,0.352,0.453c0.085,0.034,0.234,0.135,0.447,0.303
		c0.213,0.168,0.32,0.285,0.32,0.353c0.042,0.033,0.117,0.144,0.224,0.327c0.106,0.186,0.224,0.387,0.352,0.604
		c0.127,0.219,0.255,0.421,0.383,0.604c0.128,0.186,0.191,0.295,0.191,0.328c0.384,0.437,0.895,0.823,1.534,1.158
		c0.639,0.336,1.32,0.63,2.045,0.882c0.724,0.252,1.448,0.487,2.173,0.705c0.724,0.219,1.384,0.429,1.981,0.63
		c0.085,0.067,0.266,0.202,0.543,0.403c0.277,0.201,0.458,0.302,0.543,0.302h0.639h1.725c0.17,0,0.585,0.043,1.246,0.126
		c0.66,0.085,1.076,0.126,1.246,0.126h1.79c1.576,0,2.971-0.15,4.185-0.453c1.215-0.302,2.503-0.672,3.866-1.108
		c0.298-0.066,0.713-0.143,1.246-0.227c0.532-0.084,0.948-0.227,1.246-0.429c0.085-0.032,0.277-0.158,0.575-0.378
		c0.298-0.218,0.617-0.461,0.959-0.73c0.341-0.268,0.671-0.536,0.99-0.806c0.319-0.269,0.543-0.453,0.671-0.554
		c0.17-0.135,0.404-0.336,0.703-0.605c0.298-0.268,0.596-0.536,0.895-0.806c0.298-0.269,0.564-0.512,0.799-0.73
		c0.233-0.218,0.372-0.344,0.415-0.378c0.042-0.033,0.097-0.143,0.16-0.327s0.138-0.386,0.224-0.604
		c0.085-0.219,0.16-0.42,0.224-0.604c0.064-0.185,0.117-0.294,0.16-0.328c0.212-0.436,0.415-0.78,0.606-1.032
		c0.192-0.252,0.361-0.504,0.512-0.756c0.148-0.252,0.266-0.529,0.352-0.831c0.085-0.303,0.128-0.706,0.128-1.21
		c0-1.074-0.032-2.115-0.097-3.123c-0.063-1.008-0.139-2.049-0.224-3.124c-0.17-0.671-0.511-1.242-1.022-1.713
		c-0.511-0.47-1.001-0.939-1.47-1.41c-0.043-0.067-0.202-0.234-0.479-0.504c-0.278-0.269-0.575-0.571-0.896-0.907
		c-0.319-0.335-0.617-0.646-0.895-0.932s-0.437-0.462-0.479-0.529c-0.299-0.301-0.565-0.511-0.799-0.629
		c-0.235-0.117-0.47-0.209-0.703-0.276c-0.234-0.067-0.49-0.135-0.767-0.202c-0.278-0.066-0.607-0.201-0.991-0.403
		c-0.426-0.268-0.842-0.604-1.246-1.007c-0.405-0.403-0.885-0.688-1.438-0.856c-0.086-0.033-0.246-0.067-0.479-0.102
		c-0.234-0.032-0.49-0.066-0.767-0.101c-0.277-0.033-0.533-0.066-0.767-0.101c-0.235-0.033-0.374-0.051-0.416-0.051
		c-0.213-0.066-0.564-0.167-1.054-0.302c-0.49-0.134-0.799-0.234-0.927-0.303c-0.086-0.066-0.331-0.201-0.735-0.402
		c-0.406-0.202-0.831-0.411-1.278-0.63c-0.447-0.218-0.874-0.42-1.278-0.604c-0.405-0.185-0.671-0.294-0.799-0.328
		c-1.108-0.369-2.354-0.638-3.738-0.806c-1.385-0.168-2.631-0.42-3.738-0.756c-1.108-0.269-2.163-0.638-3.164-1.108
		c-1.001-0.47-1.949-0.957-2.843-1.461c-1.022-0.47-2.013-0.974-2.972-1.512c-0.958-0.536-1.971-1.04-3.035-1.511
		c0-0.067-0.054-0.143-0.16-0.227c-0.106-0.084-0.203-0.126-0.288-0.126c-1.96-2.351-3.578-4.762-4.856-7.23
		c-1.278-2.468-1.917-5.163-1.917-8.086v-0.957c0-0.335,0.021-0.663,0.064-0.982c0.042-0.318,0.169-0.663,0.383-1.032
		c0.042-0.033,0.117-0.143,0.224-0.328c0.106-0.184,0.224-0.386,0.352-0.604c0.128-0.218,0.255-0.42,0.383-0.604
		s0.192-0.294,0.192-0.327s0.021-0.143,0.064-0.328c0.042-0.184,0.084-0.386,0.127-0.604c0.042-0.218,0.085-0.419,0.128-0.604
		c0.042-0.184,0.085-0.293,0.128-0.327c0.085-0.168,0.191-0.386,0.319-0.655c0.128-0.269,0.277-0.554,0.447-0.856
		c0.17-0.302,0.362-0.596,0.575-0.882c0.213-0.284,0.447-0.528,0.703-0.73c0.042-0.066,0.202-0.209,0.479-0.428
		c0.277-0.218,0.575-0.453,0.895-0.705c0.319-0.252,0.607-0.479,0.862-0.681c0.256-0.201,0.405-0.335,0.447-0.403
		c0.085,0,0.181-0.075,0.288-0.227c0.106-0.151,0.16-0.293,0.16-0.428c0.511-0.94,1.192-1.671,2.044-2.191
		c0.852-0.521,1.875-1.066,3.067-1.638c0.085,0.067,0.192,0.101,0.32,0.101c0.085,0,0.128-0.033,0.128-0.101
		c0.042,0,0.138-0.042,0.287-0.126c0.149-0.084,0.32-0.185,0.511-0.303c0.192-0.117,0.458-0.26,0.799-0.428h0.32h0.895
		c0.085,0,0.361-0.051,0.831-0.151c0.468-0.101,0.969-0.209,1.502-0.327c0.532-0.117,1.043-0.219,1.534-0.303
		c0.489-0.083,0.799-0.126,0.926-0.126h0.895h2.236c0.128-0.033,0.425-0.066,0.895-0.101c0.468-0.033,0.969-0.066,1.502-0.101
		c0.532-0.033,1.043-0.067,1.534-0.101c0.489-0.033,0.799-0.051,0.927-0.051h0.319h0.064c0.085,0,0.212,0.06,0.383,0.177
		c0.17,0.118,0.297,0.176,0.383,0.176h1.726h0.767c0.554,0.034,1.225,0.194,2.013,0.479c0.788,0.286,1.587,0.604,2.396,0.958
		c0.809,0.353,1.598,0.714,2.364,1.083c0.768,0.37,1.406,0.654,1.918,0.856c0.084,0.067,0.287,0.143,0.606,0.227
		s0.5,0.126,0.543,0.126c0.384,0.168,0.745,0.396,1.087,0.68c0.34,0.286,0.691,0.563,1.055,0.832
		c0.361,0.269,0.744,0.503,1.149,0.705c0.404,0.201,0.863,0.302,1.374,0.302c0.597,0,1.032-0.15,1.311-0.453
		c0.276-0.302,0.489-0.655,0.639-1.058c0.148-0.403,0.266-0.814,0.352-1.234c0.085-0.42,0.213-0.764,0.384-1.033
		c0-0.101,0.085-0.234,0.255-0.403c0.17-0.167,0.361-0.353,0.575-0.554c0.213-0.201,0.416-0.386,0.607-0.555
		c0.191-0.167,0.309-0.284,0.352-0.353c0.085-0.066,0.191-0.101,0.319-0.101h0.128c0.596,0,1.012,0.235,1.246,0.705
		c0.233,0.471,0.352,0.891,0.352,1.26v0.555c0,0.101-0.032,0.276-0.096,0.528c-0.064,0.252-0.139,0.521-0.224,0.807
		c-0.086,0.285-0.171,0.554-0.256,0.806c-0.086,0.252-0.149,0.396-0.191,0.429c-0.64,3.796-0.959,7.657-0.959,11.587
		c0,0.604,0.021,1.201,0.063,1.789c0.042,0.588,0.064,1.184,0.064,1.788c-0.086,0.202-0.182,0.445-0.288,0.73
		c-0.106,0.286-0.255,0.563-0.447,0.831c-0.191,0.27-0.415,0.496-0.671,0.681c-0.255,0.185-0.533,0.277-0.83,0.277
		c-0.512,0-0.906-0.084-1.183-0.252c-0.277-0.168-0.49-0.378-0.639-0.63c-0.15-0.252-0.267-0.521-0.352-0.807
		c-0.086-0.284-0.192-0.562-0.319-0.831c-0.47-1.074-0.938-2.267-1.406-3.577c-0.47-1.31-0.938-2.469-1.406-3.476
		c-0.213-0.403-0.564-0.873-1.054-1.411c-0.49-0.537-1.045-1.083-1.662-1.638c-0.618-0.554-1.225-1.074-1.821-1.562
		c-0.597-0.486-1.086-0.914-1.47-1.284c-0.426-0.437-0.83-0.949-1.214-1.537c-0.384-0.587-0.874-1.016-1.47-1.284
		c-0.47-0.202-1.022-0.411-1.661-0.63c-0.64-0.219-1.301-0.429-1.981-0.63c-0.682-0.201-1.353-0.369-2.013-0.504
		c-0.661-0.134-1.246-0.201-1.757-0.201c-1.065,0-2.109,0.159-3.131,0.479s-2.088,0.597-3.195,0.831
		c-0.043,0-0.16,0.018-0.352,0.051c-0.191,0.033-0.415,0.067-0.671,0.101c-0.255,0.033-0.49,0.067-0.703,0.101
		c-0.214,0.034-0.384,0.051-0.511,0.051h-1.598c-0.043,0.033-0.15,0.101-0.319,0.201c-0.171,0.101-0.374,0.219-0.607,0.353
		c-0.234,0.135-0.458,0.27-0.671,0.403c-0.214,0.135-0.362,0.252-0.447,0.353c-1.15,0.806-2.088,1.562-2.812,2.267
		c-0.725,0.706-1.289,1.437-1.694,2.192c-0.405,0.755-0.693,1.587-0.862,2.493c-0.171,0.907-0.256,1.965-0.256,3.174
		c0,0.27,0.021,0.639,0.064,1.108c0.042,0.471,0.106,0.966,0.192,1.486c0.084,0.521,0.202,1,0.351,1.437
		c0.149,0.437,0.352,0.755,0.607,0.957l5.24,3.979c0.128,0.068,0.298,0.151,0.511,0.252c0.213,0.101,0.447,0.202,0.703,0.303
		c0.255,0.101,0.489,0.185,0.703,0.252c0.213,0.067,0.362,0.118,0.448,0.151c0.042,0.033,0.181,0.117,0.415,0.251
		c0.234,0.135,0.489,0.27,0.767,0.403c0.276,0.135,0.532,0.261,0.767,0.378c0.234,0.118,0.373,0.193,0.416,0.227
		c0.852,0.438,1.767,0.781,2.748,1.033c0.979,0.252,1.917,0.563,2.812,0.932c0.128,0.034,0.373,0.109,0.735,0.227
		c0.361,0.118,0.735,0.244,1.118,0.378c0.383,0.135,0.756,0.261,1.118,0.378c0.362,0.118,0.607,0.21,0.735,0.277
		c0.042,0,0.212,0.067,0.511,0.201c0.297,0.135,0.628,0.277,0.99,0.429c0.361,0.151,0.703,0.285,1.022,0.403
		s0.543,0.193,0.671,0.227c0.042,0,0.191,0.009,0.447,0.025s0.532,0.042,0.831,0.075c0.298,0.034,0.585,0.075,0.862,0.126
		c0.276,0.05,0.457,0.093,0.543,0.126c0.085,0,0.288,0.084,0.607,0.252s0.5,0.269,0.543,0.302c0.17,0.068,0.458,0.177,0.863,0.328
		c0.404,0.15,0.819,0.311,1.246,0.479c0.425,0.168,0.83,0.327,1.214,0.479s0.639,0.261,0.767,0.327
		c2.173,0.807,4.186,1.898,6.039,3.275s3.451,2.938,4.793,4.685c1.342,1.747,2.396,3.586,3.163,5.516
		c0.767,1.933,1.15,3.854,1.15,5.769v0.555c-0.043,0.336-0.096,0.798-0.16,1.386c-0.063,0.588-0.139,1.184-0.224,1.788
		c-0.086,0.604-0.171,1.143-0.256,1.612c-0.086,0.471-0.149,0.739-0.191,0.806c-0.171,0.739-0.427,1.42-0.767,2.041
		c-0.342,0.622-0.757,1.218-1.246,1.788c-0.49,0.571-1.002,1.143-1.534,1.713c-0.533,0.571-1.076,1.159-1.629,1.764
		c0,0.034-0.043,0.109-0.128,0.227c-0.086,0.118-0.171,0.244-0.256,0.378c-0.086,0.135-0.182,0.27-0.287,0.403
		c-0.107,0.135-0.16,0.219-0.16,0.252c-0.299,0.437-0.778,0.772-1.438,1.007c-0.661,0.235-1.226,0.487-1.693,0.756
		c-0.043,0.068-0.16,0.186-0.352,0.353c-0.192,0.169-0.395,0.345-0.607,0.529c-0.214,0.186-0.415,0.353-0.607,0.504
		c-0.191,0.151-0.31,0.227-0.352,0.227c-0.767,0.403-1.513,0.723-2.236,0.957c-0.725,0.235-1.47,0.438-2.236,0.604
		c-0.767,0.169-1.545,0.328-2.333,0.479c-0.788,0.15-1.629,0.327-2.523,0.528c-0.853,0.202-1.608,0.403-2.269,0.604
		c-0.661,0.202-1.46,0.303-2.396,0.303h-1.278c-0.554-0.034-1.534-0.109-2.939-0.227c-1.406-0.118-2.887-0.244-4.441-0.378
		c-1.556-0.135-3.025-0.26-4.409-0.378C222.484,304.718,221.515,304.625,220.961,304.558z"/>
</g>
<g>
	<path fill="#009DF4" d="M290.159,305.054c-0.877-0.47-1.779-0.873-2.708-1.209c-0.929-0.335-1.849-0.789-2.76-1.36
		c-0.07,0-0.192-0.059-0.367-0.176c-0.176-0.118-0.352-0.244-0.526-0.378c-0.176-0.134-0.342-0.269-0.499-0.403
		c-0.158-0.134-0.255-0.234-0.289-0.303c-0.456-0.268-0.912-0.504-1.367-0.705c-0.456-0.201-0.876-0.436-1.262-0.705l-3.364-3.225
		c-0.07-0.066-0.236-0.184-0.499-0.353c-0.264-0.168-0.413-0.252-0.447-0.252c0-0.234-0.123-0.353-0.368-0.353
		c-0.491-0.672-1.025-1.335-1.604-1.99s-1.112-1.368-1.603-2.141c-0.036,0-0.132-0.168-0.29-0.504
		c-0.157-0.336-0.254-0.588-0.289-0.756c-1.647-3.09-3.102-6.23-4.363-9.421c-0.035-0.033-0.157-0.235-0.367-0.604
		c-0.211-0.37-0.315-0.588-0.315-0.655v-1.915c-0.105-1.074-0.237-2.106-0.395-3.098c-0.158-0.99-0.236-2.023-0.236-3.099v-1.612
		c0.034-0.335,0.078-0.932,0.131-1.788s0.113-1.771,0.185-2.746c0.069-0.974,0.131-1.89,0.184-2.746s0.096-1.469,0.132-1.839
		c0.069-0.939,0.289-1.813,0.656-2.619c0.368-0.807,0.71-1.629,1.025-2.469c0-0.033,0.018-0.117,0.053-0.252
		c0.034-0.134,0.069-0.294,0.105-0.479c0.034-0.185,0.069-0.353,0.104-0.504s0.053-0.26,0.053-0.328
		c0.034-0.066,0.097-0.227,0.185-0.479c0.087-0.252,0.191-0.512,0.315-0.78c0.122-0.269,0.228-0.529,0.315-0.781
		c0.087-0.252,0.148-0.411,0.184-0.479c0-0.033,0.018-0.126,0.053-0.277c0.034-0.151,0.069-0.318,0.104-0.504
		c0.035-0.184,0.07-0.353,0.105-0.504c0.034-0.15,0.07-0.26,0.105-0.327c0-0.033,0.079-0.117,0.236-0.252
		c0.157-0.134,0.333-0.293,0.525-0.479c0.192-0.185,0.377-0.353,0.553-0.504c0.175-0.151,0.297-0.243,0.367-0.277
		c0.806-0.939,1.586-1.896,2.34-2.871c0.753-0.974,1.585-1.915,2.497-2.821c1.682-1.746,3.417-3.342,5.204-4.786
		s3.872-2.553,6.256-3.325c0.245-0.101,0.534-0.234,0.867-0.403c0.333-0.168,0.675-0.335,1.025-0.504
		c0.35-0.167,0.71-0.318,1.077-0.453c0.368-0.134,0.71-0.218,1.025-0.252h1.314c0.069,0,0.263-0.042,0.578-0.126
		c0.315-0.083,0.561-0.159,0.736-0.227c0.14-0.033,0.394-0.108,0.762-0.227c0.368-0.117,0.763-0.243,1.183-0.378
		c0.421-0.134,0.823-0.26,1.21-0.378c0.385-0.117,0.665-0.21,0.841-0.277h6.466c1.052,0,1.91,0.018,2.576,0.051
		c0.665,0.033,1.209,0.067,1.63,0.101c0.42,0.034,0.735,0.067,0.946,0.101c0.21,0.034,0.367,0.067,0.473,0.101
		c0.175,0.034,0.631,0.144,1.367,0.328c0.735,0.185,1.524,0.386,2.365,0.604s1.63,0.42,2.365,0.604
		c0.736,0.185,1.21,0.294,1.42,0.327c0.14,0,0.438,0.043,0.894,0.126c0.455,0.084,0.718,0.16,0.789,0.227
		c0.034,0,0.148,0.068,0.341,0.202s0.395,0.276,0.604,0.428c0.211,0.151,0.412,0.286,0.605,0.403
		c0.191,0.118,0.323,0.193,0.394,0.227c0.07,0,0.289,0.051,0.657,0.151s0.587,0.168,0.657,0.201c0.28,0.201,0.543,0.445,0.789,0.73
		c0.244,0.286,0.499,0.563,0.762,0.831c0.263,0.27,0.543,0.496,0.841,0.681s0.657,0.277,1.078,0.277s0.779-0.285,1.077-0.856
		s0.587-1.192,0.868-1.864c0.279-0.672,0.578-1.293,0.894-1.864s0.718-0.856,1.209-0.856c0.35,0,0.639,0.176,0.867,0.529
		c0.228,0.353,0.402,0.764,0.525,1.234s0.202,0.94,0.237,1.41c0.034,0.471,0.053,0.806,0.053,1.008c0,0.302-0.019,0.546-0.053,0.73
		c-0.035,0.185-0.141,0.411-0.315,0.68v14.561c0,0.672-0.132,1.284-0.395,1.839c-0.263,0.554-0.78,0.882-1.551,0.982
		c-0.176,0.033-0.351-0.017-0.525-0.151c-0.176-0.134-0.334-0.294-0.474-0.479c-0.141-0.185-0.271-0.369-0.395-0.555
		c-0.123-0.184-0.219-0.31-0.289-0.378c0-0.066-0.149-0.227-0.446-0.479c-0.299-0.252-0.465-0.428-0.5-0.528
		c-0.104-0.134-0.271-0.353-0.499-0.655c-0.229-0.303-0.456-0.612-0.684-0.932c-0.229-0.319-0.446-0.63-0.657-0.933
		c-0.21-0.302-0.333-0.504-0.368-0.604c-0.455-0.638-0.78-1.352-0.972-2.141c-0.193-0.789-0.553-1.52-1.078-2.192
		c-0.597-0.771-1.183-1.41-1.761-1.914s-1.201-1.041-1.866-1.612c-0.771-0.638-1.438-1.217-1.998-1.738
		c-0.561-0.521-1.122-0.982-1.682-1.385c-0.562-0.403-1.184-0.764-1.866-1.084c-0.684-0.318-1.534-0.612-2.55-0.881
		c-1.333-0.303-2.708-0.588-4.127-0.856s-2.795-0.403-4.127-0.403c-0.701,0-1.376,0.118-2.023,0.353
		c-0.649,0.235-1.288,0.529-1.919,0.882s-1.254,0.739-1.866,1.158c-0.613,0.421-1.201,0.799-1.761,1.134
		c-0.491,0.303-0.999,0.504-1.525,0.604c-0.525,0.101-1.017,0.336-1.472,0.705c-0.946,0.773-1.813,1.63-2.602,2.57
		c-0.789,0.94-1.691,1.763-2.708,2.468c-0.07,0.068-0.176,0.177-0.315,0.328c-0.141,0.151-0.245,0.244-0.315,0.276
		c0,0.068-0.104,0.32-0.315,0.756c-0.21,0.438-0.333,0.723-0.368,0.856c-0.14,0.235-0.341,0.513-0.604,0.832
		c-0.263,0.319-0.525,0.638-0.788,0.957s-0.509,0.646-0.736,0.982c-0.229,0.336-0.377,0.654-0.446,0.957
		c-0.211,0.874-0.351,1.722-0.421,2.544c-0.07,0.823-0.245,1.672-0.525,2.545c-0.281,0.705-0.544,1.402-0.789,2.091
		s-0.438,1.453-0.578,2.292c-0.07,0.437-0.114,0.991-0.131,1.662c-0.019,0.673-0.167,1.243-0.447,1.713
		c-0.07,0.235-0.123,0.639-0.157,1.21c-0.036,0.571-0.071,1.176-0.105,1.813c-0.035,0.638-0.062,1.243-0.079,1.813
		c-0.018,0.571-0.026,0.975-0.026,1.209c0,1.008,0.097,2.065,0.289,3.174s0.438,2.234,0.736,3.376
		c0.297,1.142,0.622,2.259,0.973,3.35c0.35,1.093,0.684,2.108,0.999,3.049c0,0.033,0.025,0.168,0.078,0.402
		c0.053,0.235,0.113,0.496,0.185,0.781c0.069,0.286,0.14,0.555,0.21,0.806c0.07,0.252,0.122,0.429,0.158,0.529
		c0,0.101,0.096,0.286,0.289,0.555c0.191,0.269,0.402,0.563,0.631,0.881c0.228,0.32,0.446,0.605,0.656,0.856
		c0.211,0.252,0.351,0.396,0.421,0.429c0.034,0.067,0.113,0.21,0.236,0.428c0.123,0.22,0.245,0.454,0.368,0.706
		c0.122,0.252,0.245,0.487,0.368,0.705c0.122,0.219,0.184,0.361,0.184,0.429c0.491,0.571,0.964,1.075,1.42,1.511
		c0.455,0.438,0.92,0.84,1.393,1.209c0.474,0.37,0.964,0.739,1.473,1.108c0.507,0.37,1.077,0.79,1.708,1.26l0.999,0.957
		c0.596,0.27,1.341,0.63,2.234,1.083c0.894,0.454,1.585,1.051,2.076,1.789c1.611,0.135,3.181,0.378,4.705,0.73
		s3.109,0.529,4.758,0.529h1.051c0.49,0,0.964-0.017,1.42-0.051c0.455-0.033,0.963-0.168,1.524-0.403
		c0.034,0,0.113-0.024,0.236-0.075c0.122-0.051,0.254-0.117,0.395-0.201c0.14-0.084,0.263-0.151,0.368-0.202
		c0.104-0.05,0.175-0.075,0.21-0.075c0.105-0.033,0.359-0.101,0.763-0.202c0.402-0.101,0.822-0.201,1.261-0.302
		s0.85-0.193,1.236-0.277c0.385-0.083,0.63-0.143,0.735-0.176c0.034,0,0.185-0.084,0.447-0.252s0.429-0.285,0.499-0.353
		c0.034-0.033,0.122-0.109,0.263-0.228c0.14-0.117,0.289-0.234,0.447-0.353c0.157-0.117,0.358-0.26,0.604-0.428
		c0.105-0.033,0.289-0.084,0.552-0.151s0.447-0.101,0.552-0.101c0.035-0.067,0.07-0.117,0.105-0.151l0.157-0.151
		c0.14-0.167,0.342-0.419,0.605-0.756c0.263-0.335,0.533-0.671,0.814-1.007c0.28-0.336,0.534-0.646,0.762-0.933
		c0.228-0.285,0.377-0.461,0.447-0.528c0.034-0.033,0.14-0.159,0.315-0.378c0.175-0.219,0.35-0.454,0.525-0.706
		s0.351-0.486,0.526-0.705c0.175-0.218,0.279-0.36,0.315-0.428c0.034-0.033,0.113-0.102,0.236-0.202
		c0.122-0.101,0.254-0.218,0.395-0.353c0.14-0.134,0.271-0.269,0.394-0.403c0.123-0.134,0.185-0.234,0.185-0.302
		c0.069,0,0.148-0.143,0.236-0.429c0.087-0.284,0.132-0.461,0.132-0.528c0.034-0.067,0.122-0.235,0.263-0.504
		c0.14-0.269,0.28-0.563,0.42-0.882s0.271-0.612,0.395-0.882c0.122-0.269,0.201-0.436,0.236-0.504
		c0.035-0.066,0.088-0.227,0.158-0.479c0.069-0.252,0.14-0.512,0.21-0.781c0.07-0.268,0.132-0.528,0.185-0.78
		c0.052-0.252,0.078-0.411,0.078-0.479c0.07-0.134,0.158-0.311,0.263-0.529c0.105-0.218,0.219-0.428,0.342-0.63
		c0.123-0.201,0.28-0.369,0.474-0.504c0.192-0.134,0.395-0.201,0.604-0.201c0.175,0,0.359,0.009,0.552,0.025
		s0.342,0.109,0.447,0.276c0.069,0.102,0.157,0.252,0.263,0.454c0.105,0.201,0.21,0.402,0.315,0.604
		c0.105,0.201,0.192,0.378,0.263,0.529c0.07,0.15,0.105,0.243,0.105,0.276c0,0.068-0.026,0.235-0.079,0.504
		c-0.053,0.27-0.114,0.571-0.184,0.907c-0.071,0.336-0.141,0.646-0.211,0.932c-0.07,0.286-0.123,0.462-0.157,0.529
		c-0.105,0.571-0.229,1.234-0.368,1.99c-0.141,0.756-0.272,1.536-0.395,2.343c-0.123,0.806-0.236,1.604-0.342,2.393
		c-0.104,0.79-0.176,1.486-0.21,2.091v2.217v0.907c-0.07,0.235-0.158,0.437-0.263,0.604c-0.071,0.168-0.141,0.336-0.211,0.504
		s-0.14,0.302-0.21,0.402c-0.105,0.303-0.167,0.496-0.184,0.58c-0.019,0.084-0.167,0.126-0.447,0.126
		c-0.315,0-0.57-0.185-0.762-0.555c-0.193-0.369-0.387-0.781-0.579-1.234s-0.42-0.864-0.683-1.234
		c-0.264-0.369-0.623-0.554-1.078-0.554c-0.351,0-0.518,0.017-0.499,0.05c0.017,0.034-0.079,0.169-0.289,0.403
		c-1.438,1.143-2.91,2.158-4.416,3.048c-1.508,0.891-3.12,1.621-4.837,2.191c-0.771,0.337-1.507,0.706-2.208,1.108
		c-0.701,0.403-1.472,0.689-2.313,0.856c-0.597,0.068-1.209,0.126-1.84,0.177c-0.631,0.05-1.14,0.294-1.524,0.73l-7.57,0.655
		c-1.612-0.572-3.295-0.982-5.047-1.234C293.558,305.482,291.841,305.256,290.159,305.054z"/>
</g>
<path fill-rule="evenodd" clip-rule="evenodd" fill="none" stroke="#000000" stroke-width="4" d="M358.463,270
	c0,47.495-39.28,86-87.731,86"/>
<g>
	<path fill="#009DF4" d="M235.954,349.09c-8.954-3.641-16.182-7.27-18.478-8.45l0,0l-46.8,15.573l18.426-49.84
		c-1.348-3.974-8.06-24.054-8.104-36.374l0,0c0-24.305,10.057-46.325,26.297-62.238l0,0c16.236-15.919,38.673-25.762,63.435-25.762
		l0,0c24.76,0,47.199,9.843,63.435,25.762l0,0c16.238,15.913,26.298,37.934,26.298,62.238l0,0c0,24.306-10.06,46.325-26.298,62.24
		l0,0c-16.235,15.917-38.675,25.76-63.435,25.76l0,0C260.202,357.975,246.852,353.501,235.954,349.09L235.954,349.09z
		 M218.581,336.705c0.004,0.003,2.031,1.075,5.42,2.706l0,0c3.389,1.628,8.119,3.803,13.459,5.973l0,0
		c10.657,4.352,23.849,8.64,33.271,8.615l0,0c23.691,0,45.119-9.409,60.634-24.618l0,0c15.515-15.212,25.097-36.19,25.097-59.382
		l0,0c0-23.189-9.582-44.171-25.097-59.382l0,0c-15.515-15.207-36.942-24.618-60.634-24.618l0,0
		c-23.691,0-45.119,9.411-60.636,24.618l0,0c-15.513,15.211-25.094,36.192-25.094,59.382l0,0c-0.014,6.114,1.998,15.165,4.04,22.552
		l0,0c2.038,7.404,4.066,13.176,4.07,13.189l0,0l0.239,0.68l-16.03,43.367l40.502-13.482L218.581,336.705L218.581,336.705z"/>
</g>
<path fill-rule="evenodd" clip-rule="evenodd" fill="#009DF4" d="M191.225,306.404c0,0-3.48-9.902-5.913-20.404H184
	c0,7.486,2.722,18.403,5.034,26.33L191.225,306.404z M356.94,286c-7.65,39.849-43.336,70-86.209,70
	c-19.951,0-53.085-17.524-53.085-17.524l-35.762,11.9l-0.229,0.619l-10.988,4.338L175,369l43.646-14.524
	c0,0,33.134,17.524,53.085,17.524C320.183,372,360,326.161,360,278.666L356.94,286z"/>
</svg>
