<?xml version="1.0" encoding="utf-8"?>
<!-- Generator: Adobe Illustrator 13.0.0, SVG Export Plug-In . SVG Version: 6.00 Build 14948)  -->
<!DOCTYPE svg PUBLIC "-//W3C//DTD SVG 1.0//EN" "http://www.w3.org/TR/2001/REC-SVG-20010904/DTD/svg10.dtd">
<svg version="1.0" id="Layer_1" xmlns="http://www.w3.org/2000/svg" xmlns:xlink="http://www.w3.org/1999/xlink" x="0px" y="0px"
	 width="282.5px" height="295px" viewBox="0 0 282.5 295" enable-background="new 0 0 282.5 295" xml:space="preserve">
<path fill-rule="evenodd" clip-rule="evenodd" d="M171.479,27.117c-3.588,11.821-13.561,19.452-19.997,28.997
	c-6.429,9.533-12.128,19.452-18.998,28.997c6.954,0.185,13.52-4.343,17.998-4c-1.987-0.152,4.051,2.118,2,1
	c5.62,3.064,7.614,14.752,11.999,21.998c5.211,8.612,11.48,15.081,11.998,21.997c4.959-20.038,10.873-39.121,33.996-40.995
	c3.742,2.256,4.749,7.249,6.998,10.999c6.006-2.327,10.146-6.518,12.999-11.999c3.612,5.527-8.753,14.105-10.999,20.997
	c-7.17-2.015-8.371-11.313-15.998-11.998c-8.59-0.772-12.799,7.229-16.998,14.998c0.41,15.706,22.196,21.071,23.998,35.995
	c0.835,6.923-1.465,14.341-6,19.997c-3.221,1.627-5.416,0.479-8.998,0c4.342,4.127,9.638,6.223,14.998,6
	c10.252-0.426,16.731-10.631,22.996-14.998c-2.151,9.514-9.847,13.483-11.998,22.997c-5.736,1.595-13.818,0.846-20.998,1
	c-11.401-9.595-20.189-21.806-22.996-39.995c-4.631,22.699-21.387,33.273-32.996,48.994c-9.111-7.214-18.625-15.885-37.996-13.998
	c-5.846,0.568-12.327,2.789-16.998,4.999c-4.608,2.18-8.501,7.223-12.999,5.999c-3.261-1.127,1.566-5.946,3-8.999
	c10.925-23.265,19.937-55.813,36.996-74.99c-8.565-7.147-20.343-19.212-19.998-35.996c0.271-13.167,11.683-33.504,21.997-35.996
	c6.184-1.494,14.766,6.372,21.998,6.999C148.405,36.803,163.964,30.664,171.479,27.117z M122.485,33.117
	c-16.82,6.625-29.401,34.06-15.998,52.993c7,0,13.999,0,20.998,0c10.302-12.198,19.644-27.57,28.996-39.995
	c3.248-4.315,8.296-7.689,8.999-12.999C154.563,40.969,135.263,36.683,122.485,33.117z M173.479,130.104
	c-2.455-7.193-13.451-13.336-19.998-21.997c-3.243-4.292-5.171-10.111-7.998-11.999c-5.945,2.387-12.511,4.154-20.998,4
	c-13.697,22.298-28.344,43.647-37.996,69.991c-0.021,4.31,2.86-0.898,3-1c4.566-3.305,9.565-8.112,14.998-8.999
	c14.741-2.405,31.931,8.024,41.995,12.999C157.801,160.551,180.111,149.531,173.479,130.104z M193.477,162.101
	c6.639,0.925,8.484-3.446,9.998-6.999c8.445-19.814-15.325-30.003-19.997-39.995C178.891,128.986,182.972,160.637,193.477,162.101z"
	/>
<path fill-rule="evenodd" clip-rule="evenodd" d="M85.49,208.095c9.203,3.331,12.863,10.388,20.997,12.999
	c8.293,2.661,21.979,3.037,29.997,2.999c44.829-0.214,89.996-22.385,113.985-53.993c8.975-11.824,15.811-28.762,15.998-50.994
	c0.291-34.415-11.564-67.929-32.996-87.989c4.166,0.674,8.48,4.73,10.999,7.999c2.782,3.612,4.695,10.078,7.999,14.999
	c3.447,5.133,6.588,8.5,8.999,13.998c6.86,15.647,10.562,32.677,8.999,55.993c-0.768,11.449-4.422,25.687-6,38.995
	c-1.573,13.28-1.088,29.455-4.999,38.995c-3.184,7.766-13.332,13.532-19.997,18.998c-8.023,6.578-14.998,12.757-21.998,16.997
	c-13.754,2.598-28.262,11.966-45.994,14.999c-29.761,5.09-64.593,1.637-82.989-11c-20.069,10.262-36.063,24.597-54.993,35.996
	c-7.674-3.99-11.075-12.255-16.998-17.998c11.459-29.202,24.854-56.469,37.996-83.989c-0.805-8.97-9.448-15.069-7-23.997
	c2.084,8.023,9.648,13.875,9.999,21.998c0.418,9.699-10.046,25.051-16.998,39.994c-8.215,17.658-14.031,31.279-18.998,41.995
	C43.613,240.875,65.164,225.098,85.49,208.095z"/>
<path fill-rule="evenodd" clip-rule="evenodd" d="M202.475,274.086c-0.436,1.23-1.279,2.055-2.999,2
	C199.912,274.855,200.755,274.033,202.475,274.086z"/>
</svg>
