<?xml version="1.0" encoding="utf-8"?>
<!-- Generator: Adobe Illustrator 13.0.0, SVG Export Plug-In . SVG Version: 6.00 Build 14948)  -->
<!DOCTYPE svg PUBLIC "-//W3C//DTD SVG 1.0//EN" "http://www.w3.org/TR/2001/REC-SVG-20010904/DTD/svg10.dtd">
<svg version="1.0" id="Layer_1" xmlns="http://www.w3.org/2000/svg" xmlns:xlink="http://www.w3.org/1999/xlink" x="0px" y="0px"
	 width="391.25px" height="134.313px" viewBox="0 0 391.25 134.313" enable-background="new 0 0 391.25 134.313"
	 xml:space="preserve">
<path fill-rule="evenodd" clip-rule="evenodd" d="M287.707,2.388c1.333,0,2.666,0,3.999,0c5.185,18.099-0.015,40.661-2,57.992
	c2.248,0.987,10.73-1.571,9.999,5c-4.459,5.263-7.266-3.989-11.998,1C287.049,47.738,287.7,20.823,287.707,2.388z"/>
<path fill-rule="evenodd" clip-rule="evenodd" d="M227.714,11.387c5.221-0.083,7.359-7.556,10.999-6
	c-2.478,8.519-18.142,15.474-23.997,6c-8.245,3.753-10.45,13.547-13.999,21.997c3.83,9.168,5.945,20.053,12.999,25.997
	c8.18-2.681,18.313-0.011,23.997,2.999c-10.49-0.186-19.706,2.546-27.996,6.999c-0.658-1.342-2.138-1.862-4-1.999
	c-2.763-5.563-6.171-14.016-6.999-22.998C196.699,22.496,209.467-7.895,227.714,11.387z"/>
<path fill-rule="evenodd" clip-rule="evenodd" d="M149.724,5.387c1.163-0.162,1.779,0.221,2,1c-0.589,13.477,1.1,18.74,1,30.996
	c4.988,1.727,4.856-5.141,10.999-3.999c4.452,0.827,8.37,8.366,7.999,12.998c-0.495,6.166-6.82,6.875-11.999,11.999
	c-4.856,4.804-5.395,12.157-9.999,10.998C149.77,44.375,150.597,28.085,149.724,5.387z M152.724,41.383
	c-0.678,7.264,1.079,15.429,0,19.997c4.17-3.495,8.56-6.771,10.999-11.998c-3.172-2.494-2.796-8.536-5-11.999
	C157.12,39.114,154.986,40.313,152.724,41.383z"/>
<path fill-rule="evenodd" clip-rule="evenodd" d="M107.729,8.387c-2.801,8.566-21.997,6.698-29.996,4
	c-8.511,2.136-14.329,16.745-6.999,22.997c8.14-4.231,23.805-5.01,34.996-3c8.27,13.384,10.309,30.496-1,37.995
	c-3.195,2.119-11.289,4.9-15.998,5c-12.51,0.262-34.864-21.663-48.994-7c0.73,3.636,7.037,2.29,4,7
	c-16.113,1.606-5.119-12.521,1-13.999c18.692-4.516,32.179,12.436,45.995,10.999c15.47-1.608,22.14-19.281,14.998-35.995
	c-16.843-5.799-35.963,10.568-42.995-5c0.426-11.983,2.928-20.242,11.999-21.997c9.229-1.785,19.284,5.514,29.996-1
	C105.459,7.944,106.945,8.743,107.729,8.387z"/>
<path fill-rule="evenodd" clip-rule="evenodd" d="M273.708,53.381c-3.15,4.516-6.763,8.568-10.998,11.999
	c-3.822-1.844-5.364-5.969-8.999-7.999c-0.537-10.103,2.566-39.012,16.998-24.997C271.484,37.939,271.422,46.773,273.708,53.381z
	 M255.711,55.381c2.982,2.017,4.934,5.065,7.999,6.999c1.912-2.754,4.437-4.896,5.999-7.999c-6.611-3.669-3.914-16.333-4.999-22.997
	C254.148,31.822,258.696,47.369,255.711,55.381z"/>
<path fill-rule="evenodd" clip-rule="evenodd" d="M322.702,35.384c-3.472,7.526-12.123,9.873-16.998,15.998
	c1.092,5.241,1.847,10.818,5.999,12.998c4.069-0.597,7.025-2.308,8.999-4.999c2.776,5.47-5.694,8.283-12.998,6.999
	c-11.792-6.156-10.382-36.542,3-36.996C317.185,29.166,314.978,35.203,322.702,35.384z M306.704,44.382
	c2.564-2.768,6.526-4.139,9.999-5.999c-1.025-3.308-2.77-5.896-6.999-5.999C308.479,35.606,302.646,42.222,306.704,44.382z"/>
<path fill-rule="evenodd" clip-rule="evenodd" d="M350.699,31.384c1.059,11.707-15.63,2.671-16.998,9.999
	c-0.479,3.146,1.424,3.908,1.999,5.999c4.173-1.494,6.263-5.07,12.999-3.999c3.137,5.794,2.87,9.572,4.999,16.997
	c-5.13,0.203-5.841,4.824-8.999,7c-9.708-6.366-19.471-0.16-24.996,5.999c3.243-8.689,15.158-17.333,24.996-12.999
	c3.511,0.178,3.289-3.377,6-3.999c-1.345-2.321-1.655-5.678-3-7.999c-3.019,0.981-5.957,2.042-8.999,3
	c-10.664-2.25-7.565-14.167-2-19.998C343.368,35.959,345.15,31.125,350.699,31.384z"/>
<path fill-rule="evenodd" clip-rule="evenodd" fill="#FFFFFF" d="M264.71,31.384c1.085,6.664-1.612,19.328,4.999,22.997
	c-1.563,3.104-4.087,5.245-5.999,7.999c-3.065-1.934-5.017-4.982-7.999-6.999C258.696,47.369,254.148,31.822,264.71,31.384z"/>
<path fill-rule="evenodd" clip-rule="evenodd" fill="#FFFFFF" d="M309.704,32.384c4.229,0.104,5.974,2.691,6.999,5.999
	c-3.473,1.86-7.435,3.231-9.999,5.999C302.646,42.222,308.479,35.606,309.704,32.384z"/>
<path fill-rule="evenodd" clip-rule="evenodd" d="M140.725,39.383c-3.037,8.295-12.024,10.64-16.998,16.998
	c-1.245,13.6,11.862,13.487,17.998,7.999c-2.539,3.651-4.282,6.431-7.999,6.999c-21.891,3.348-21.626-39.761-1-36.995
	C136.572,34.9,135.662,38.048,140.725,39.383z M120.728,51.382c5.334-3.665,12.283-5.716,14.998-11.999
	C127.515,33.156,122.038,44.322,120.728,51.382z"/>
<path fill-rule="evenodd" clip-rule="evenodd" fill="#FFFFFF" d="M135.726,39.383c-2.715,6.283-9.664,8.334-14.998,11.999
	C122.038,44.322,127.515,33.156,135.726,39.383z"/>
<path fill-rule="evenodd" clip-rule="evenodd" fill="#FFFFFF" d="M158.723,37.383c2.203,3.463,1.828,9.505,5,11.999
	c-2.438,5.228-6.828,8.503-10.999,11.998c1.079-4.568-0.678-12.733,0-19.997C154.986,40.313,157.12,39.114,158.723,37.383z"/>
<path fill-rule="evenodd" clip-rule="evenodd" d="M374.695,72.379c0.521,9.527-10.843,15.813-15.998,22.997
	c4.019,4.75,13.488,5.581,20.998,3.999c3.169,8.36,9.012,21.68-1,26.997c-11.404,1.362-23.149-7.061-15.998-14.998
	c5.145,0.837,7.232,4.913,3.999,8.999c3.477,3.913,12.829,4.061,14.999-1c1.036-8.036-3.499-10.499-4-16.998
	c-11.58,2.708-23.819-1.121-30.996-5.999c-31.597,6.531-72.154-0.177-96.988-9.999c-13.803,8.86-35.479,9.848-41.994,25.997
	c-3.943,0.61-1.176-5.49-2-7.999c-5.595-9.736-10.787-19.876-19.998-25.997c-12.138,5.467-22.111,18.178-16.998,34.996
	c-5.32-0.347-5.755-5.577-8.999-7.999c-9.989-6.01-21.252-10.744-32.996-14.998c-16.308,8.396-32.199,15.998-53.993,15.998
	c-8.383,0-17.67-4.175-25.997-3c-3.59,0.507-5.329,3.709-8.999,4.999c-7.6,2.672-16.243,1.774-24.997,1
	c-5.545,5.38-10.652,22.185,4.999,19.998c0.938-0.734-1.25-7.883,2-8.999c3.885,0.447,4.227,4.438,4.999,7.999
	c-5.504,8.415-19.488,4.602-20.997-4c-1.339-7.63,6.848-12.895,5.999-18.997c6.903,3.642,18.689,1.77,23.997-2
	c-6.34-5.659-12.659-11.338-15.998-19.997c5.337,2.605,6.839,10.177,12.999,12.998c28.313,12.967,78.848,8.75,95.988-14.998
	c11.719,6.612,22.688,13.974,32.996,21.997c4.345-12.986,13.353-21.31,23.997-27.996c12.368,5.629,23.284,12.71,26.997,26.996
	c8.852-11.479,26.652-14.009,35.995-24.997c10.781,12.526,36.494,17.142,61.992,18.998
	C339.021,98.583,366.802,92.365,374.695,72.379z"/>
</svg>
