<?xml version="1.0" encoding="utf-8"?>
<!-- Generator: Adobe Illustrator 13.0.0, SVG Export Plug-In . SVG Version: 6.00 Build 14948)  -->
<!DOCTYPE svg PUBLIC "-//W3C//DTD SVG 1.0//EN" "http://www.w3.org/TR/2001/REC-SVG-20010904/DTD/svg10.dtd">
<svg version="1.0" id="Layer_1" xmlns="http://www.w3.org/2000/svg" xmlns:xlink="http://www.w3.org/1999/xlink" x="0px" y="0px"
	 width="544.896px" height="320.984px" viewBox="0 0 544.896 320.984" enable-background="new 0 0 544.896 320.984"
	 xml:space="preserve">
<path fill-rule="evenodd" clip-rule="evenodd" d="M377.391,12.721c1.141,0.904,4.62-1.362,5.304,0
	c-0.838,12.281-1.699,28.652,0.263,41.003c3.795,2.931,9.524-3.818,17.074,0c-4.677,13.661-2.28,20.403,0,34.146
	c-5.279,1.313-16.705,3.816-23.476-2.133C379.565,62.916,377.391,33.654,377.391,12.721z M382.958,83.604
	c3.802-1.179,8.864-1.097,10.672-4.27c-5.098-3.866-1.203-16.71,0-21.342C378.61,55.067,383.748,72.3,382.958,83.604z"/>
<path fill-rule="evenodd" clip-rule="evenodd" d="M251.565,94.493c-18.866,4.202-26.646,19.494-44.653,24.557
	c-5.766-13.895-21.43-20.7-24.557-35.722c-1.413-6.786-2.045-20.427,0-29.023c4.099-17.222,33.403-42.926,46.884-44.654
	c16.387-2.093,30.676,9.544,46.884,6.699c10.645-1.866,13.907-5.573,26.789-11.162c-11.538,25.235-52.123,32.605-82.603,20.093
	c-28.094,8.932-37.719,55.652-15.63,78.14c15.63-17.112,40.853-24.635,75.91-22.324c30.098,13.066,35.789,50.536,55.814,73.674
	c6.961-13.131,15.229-24.956,24.56-35.722c10.345,9.08,33.166,16.397,49.117,6.699c-8.598,11.465-33.233,13.833-51.35,8.929
	c-34.862,28.644,45,76.575-8.932,91.538c1.854,5.589,6.117,8.768,6.699,15.628c14.396-5.022,57.743-21.228,62.512,4.466
	c-16.579-13.238-41.953,1.918-58.047,8.932c-20.697-14.283-25.357-44.6-26.792-78.143c-17.864,17.111-12.833,41.727-29.024,58.048
	c-6.669,6.723-22.557,13.777-31.257,15.629c-40.946,8.711-90.806-15.537-118.327-35.722c-24.751-2.333-39.439,2.743-58.048,11.163
	c-9.957,4.505-23.833,9.231-29.023,13.395c-21.998,17.651-17.009,46.969-15.628,78.142c-29.705,2.688-17.307-48.674-6.696-64.744
	c12.303-18.639,48.216-34.911,75.907-40.188c-45.72-3.295-96.917,7.266-98.236,55.815c-6.755,0.683-7.974,6.908-17.858,4.466
	c-9.863-20.479,12.02-39.149,22.324-46.886c35.569-26.703,110.368-26.119,149.585-6.696c9.749,4.827,18.286,14.145,29.023,17.86
	c30.02,10.384,73.728,5.948,93.769-8.932c25.189-33.478,15.769-104.365-8.929-131.722c-32.946-6.334-50.85,18.164-73.676,29.023
	c-0.062-2.172-2.734-1.734-4.466-2.233C224.038,111.617,239.527,104.78,251.565,94.493z M260.495,25.282
	c-9.431-1.792-23.055-11.097-33.489-4.466C235.359,22.753,261.304,28.841,260.495,25.282z M347.566,221.75
	c26.455-11.869,2.303-41.078-6.698-55.813C338.824,188.816,346.022,202.456,347.566,221.75z"/>
<path fill-rule="evenodd" clip-rule="evenodd" d="M461.428,134.68c2.595-0.364,5.529,0.225,6.022,1.965
	c0.371,42.797-2.351,67.444-1.557,109.664c-3.066-2.674-6.058,1.484-6.258-2.113c-0.747-13.397-0.093-33.026,0.369-44.657
	C460.792,179.97,460.857,158.461,461.428,134.68z"/>
<path fill-rule="evenodd" clip-rule="evenodd" d="M499.98,215.714c-0.283,9.803-13.807,6.371-16.297,13.971
	c-0.166,9.478,8.604,10.023,18.626,9.314C465.859,266.637,470.542,185.168,499.98,215.714z M486.012,222.7
	c-0.921-5.582,10.605,1.291,6.985-6.986C487.093,213.247,479.722,220.615,486.012,222.7z"/>
<path fill-rule="evenodd" clip-rule="evenodd" d="M537.337,215.053c-7.052,2.215-15.665-1.962-22.329,4.466
	c2.778,8.386,20.541,1.787,24.562,8.929c1.082,8.524-0.633,14.252-4.466,17.861c-17.126-4.602-26.053,8.822-35.722,4.466
	c2.695-15.131,26.673-10.691,35.722-13.396c1.282-13.936-20.244-5.059-24.557-13.395c0-3.723,0-7.442,0-11.165
	C514.625,208.913,537.437,202.783,537.337,215.053z"/>
<path fill-rule="evenodd" clip-rule="evenodd" d="M448.035,210.587c12.748,14.85,3.471,42.024-17.863,33.489
	C419.362,231.57,427.367,198.95,448.035,210.587z M432.404,235.146c3.972,1.982,5.674,6.232,13.397,4.464
	c1.155-10.474,2.63-19.991-6.698-24.557C435.513,220.393,431.756,225.567,432.404,235.146z"/>
<path fill-rule="evenodd" clip-rule="evenodd" d="M345.333,76.632c4.309-9.089,15.391-11.402,17.862-22.327
	c-34.331-15.015-26.453,55.776,0,29.023C354.221,84.116,346.858,83.293,345.333,76.632z M356.737,56.264
	c0,0-9.489,8.557-10.791,11.905C345.946,68.169,340.549,56.076,356.737,56.264z"/>
</svg>
