<?xml version="1.0" encoding="utf-8"?>
<!-- Generator: Adobe Illustrator 13.0.0, SVG Export Plug-In . SVG Version: 6.00 Build 14948)  -->
<!DOCTYPE svg PUBLIC "-//W3C//DTD SVG 1.0//EN" "http://www.w3.org/TR/2001/REC-SVG-20010904/DTD/svg10.dtd">
<svg version="1.0" id="Layer_1" xmlns="http://www.w3.org/2000/svg" xmlns:xlink="http://www.w3.org/1999/xlink" x="0px" y="0px"
	 width="555px" height="555px" viewBox="0 0 555 555" enable-background="new 0 0 555 555" xml:space="preserve">
<g>
	<path stroke="#000000" d="M235.954,349.09c-8.954-3.641-16.183-7.27-18.479-8.449l0,0l-46.8,15.572l18.426-49.84
		c-1.348-3.974-8.06-24.054-8.104-36.374l0,0c0-24.305,10.057-46.325,26.297-62.237l0,0c16.235-15.92,38.673-25.763,63.435-25.763
		l0,0c24.76,0,47.199,9.843,63.435,25.763l0,0c16.238,15.912,26.299,37.934,26.299,62.237l0,0c0,24.307-10.061,46.325-26.299,62.24
		l0,0c-16.234,15.917-38.675,25.76-63.435,25.76l0,0C260.202,357.975,246.852,353.501,235.954,349.09L235.954,349.09z
		 M218.581,336.705c0.004,0.003,2.03,1.075,5.42,2.706l0,0c3.389,1.628,8.119,3.803,13.459,5.973l0,0
		c10.657,4.353,23.849,8.641,33.271,8.615l0,0c23.691,0,45.119-9.409,60.634-24.618l0,0c15.516-15.212,25.098-36.189,25.098-59.382
		l0,0c0-23.188-9.582-44.171-25.098-59.382l0,0c-15.515-15.207-36.941-24.618-60.634-24.618l0,0
		c-23.69,0-45.119,9.411-60.636,24.618l0,0c-15.513,15.211-25.094,36.192-25.094,59.382l0,0c-0.015,6.114,1.998,15.165,4.04,22.552
		l0,0c2.038,7.404,4.065,13.177,4.069,13.189l0,0l0.239,0.68l-16.03,43.367l40.502-13.481L218.581,336.705L218.581,336.705z"/>
</g>
<path stroke="#000000" d="M191.225,306.404c0,0-3.479-9.902-5.913-20.404H184c0,7.486,2.722,18.403,5.034,26.33L191.225,306.404z
	 M356.94,286c-7.65,39.85-43.336,70-86.209,70c-19.951,0-53.085-17.523-53.085-17.523l-35.762,11.899l-0.229,0.619l-10.987,4.338
	L175,369l43.646-14.523c0,0,33.134,17.523,53.085,17.523c48.452,0,88.27-45.839,88.27-93.334L356.94,286z"/>
<path fill-rule="evenodd" clip-rule="evenodd" stroke="#000000" d="M277.056,208.992c-2.657,8.755-10.044,14.407-14.811,21.477
	c-4.761,7.061-8.983,14.407-14.07,21.476c5.15,0.137,10.014-3.216,13.33-2.962c-1.472-0.112,3,1.569,1.481,0.741
	c4.163,2.269,5.64,10.927,8.887,16.292c3.859,6.379,8.503,11.17,8.887,16.293c3.673-14.842,8.053-28.976,25.179-30.364
	c2.771,1.671,3.518,5.369,5.184,8.146c4.448-1.724,7.515-4.828,9.628-8.887c2.675,4.094-6.483,10.447-8.146,15.551
	c-5.311-1.492-6.2-8.379-11.85-8.886c-6.362-0.571-9.479,5.354-12.59,11.108c0.304,11.632,16.44,15.606,17.774,26.66
	c0.618,5.128-1.085,10.622-4.443,14.811c-2.386,1.205-4.012,0.354-6.665,0c3.216,3.057,7.139,4.609,11.108,4.444
	c7.594-0.315,12.393-7.874,17.032-11.108c-1.594,7.047-7.293,9.986-8.887,17.033c-4.248,1.181-10.234,0.626-15.552,0.74
	c-8.444-7.106-14.953-16.15-17.032-29.622c-3.43,16.812-15.84,24.644-24.438,36.287c-6.748-5.343-13.795-11.765-28.142-10.367
	c-4.33,0.421-9.13,2.065-12.589,3.702c-3.413,1.614-6.296,5.35-9.627,4.443c-2.415-0.835,1.16-4.404,2.222-6.665
	c8.091-17.231,14.766-41.338,27.401-55.542c-6.344-5.294-15.067-14.229-14.812-26.66c0.201-9.752,8.653-24.815,16.292-26.66
	c4.58-1.106,10.937,4.719,16.292,5.184C259.967,216.166,271.49,211.618,277.056,208.992z M240.769,213.435
	c-12.458,4.907-21.776,25.227-11.849,39.25c5.184,0,10.368,0,15.552,0c7.63-9.035,14.549-20.42,21.476-29.623
	c2.406-3.196,6.145-5.695,6.665-9.627C264.528,219.251,250.233,216.076,240.769,213.435z M278.537,285.27
	c-1.818-5.328-9.962-9.878-14.812-16.292c-2.402-3.179-3.83-7.489-5.924-8.887c-4.403,1.768-9.266,3.076-15.552,2.962
	c-10.145,16.515-20.993,32.328-28.142,51.839c-0.016,3.192,2.118-0.665,2.222-0.74c3.382-2.448,7.084-6.009,11.108-6.666
	c10.917-1.781,23.65,5.943,31.104,9.628C266.926,307.82,283.45,299.658,278.537,285.27z M293.349,308.968
	c4.917,0.686,6.284-2.552,7.405-5.184c6.255-14.676-11.351-22.222-14.811-29.622C282.546,284.442,285.569,307.884,293.349,308.968z"
	/>
</svg>
